<?xml version="1.0" encoding="utf-8"?>
<svg xmlns="http://www.w3.org/2000/svg" viewBox="242.3086 61.9574 141.1357 113.4669" width="141.136px" height="113.467px" xmlns:bx="https://boxy-svg.com" preserveAspectRatio="none"><g id="object-0" transform="matrix(1, 0, 0, 1, -1.4210854715202004e-14, 0)"><path style="paint-order: fill; stroke: rgb(0, 0, 0); fill: rgb(255, 255, 255); stroke-width: 9.5508px; transform-origin: 374.935px 378.695px;" transform="matrix(-0.36174, 0.322463, -0.374044, -0.420025, -38.214469, -293.776602)" d="M 355.578 286.818 A 73 73 0 1 1 355.578 404.182 A 58.848 58.848 0 0 0 355.578 286.818 Z" bx:shape="crescent 399 345.5 73 253 0.575 1@175d4580"/><circle style="stroke: rgb(0, 0, 0); fill: rgb(255, 255, 255); paint-order: stroke; stroke-width: 0px;" cx="67.29598215316376" cy="177.83191664003456" r="38.00970735875201" transform="matrix(0.414815, 0.773384, -0.754324, 0.404593, 392.974731, 6.654537)" id="object-3"/><g id="Cloud" transform="matrix(5.314677, 0, 0, 5.320471, 235.551056, 68.003647)" style=""><path d="M17.1,19.4H9.646a7.492,7.492,0,0,1-7.588-7.046h0A7.4,7.4,0,0,1,9.452,4.6a7.434,7.434,0,0,1,7.136,5.447,4.731,4.731,0,0,1,4.092,1.441,4.664,4.664,0,0,1,1.26,3.529A4.789,4.789,0,0,1,17.1,19.4ZM3.057,12.309A6.493,6.493,0,0,0,9.646,18.4H17.1a3.787,3.787,0,0,0,3.839-3.453,3.7,3.7,0,0,0-4.5-3.86l-.2.046-.269-.127a.617.617,0,0,1-.273-.392A6.422,6.422,0,0,0,9.452,5.6a6.4,6.4,0,0,0-6.395,6.711Z" style="stroke-width: 0px;"/></g><circle style="stroke: rgb(0, 0, 0); fill: rgb(255, 255, 255); paint-order: stroke; stroke-width: 0px;" cx="67.29598215316376" cy="177.83191664003456" r="38.00970735875201" transform="matrix(0.234498, 0.437199, -0.440198, 0.236106, 390.495392, 74.840942)" id="object-2"/><rect x="292.704" y="150.324" width="34.58" height="14.697" style="stroke: rgb(255, 255, 255); fill: rgb(255, 255, 255);"/></g></svg>